<?xml version="1.0" encoding="UTF-8" standalone="no"?>
<!-- Created with Inkscape (http://www.inkscape.org/) -->

<svg
   width="64"
   height="64"
   viewBox="0 0 16.933333 16.933333"
   version="1.1"
   id="svg5"
   inkscape:version="1.1.1 (3bf5ae0d25, 2021-09-20, custom)"
   sodipodi:docname="duet.svg"
   xmlns:inkscape="http://www.inkscape.org/namespaces/inkscape"
   xmlns:sodipodi="http://sodipodi.sourceforge.net/DTD/sodipodi-0.dtd"
   xmlns="http://www.w3.org/2000/svg"
   xmlns:svg="http://www.w3.org/2000/svg">
  <sodipodi:namedview
     id="namedview7"
     pagecolor="#505050"
     bordercolor="#ffffff"
     borderopacity="1"
     inkscape:pageshadow="0"
     inkscape:pageopacity="0"
     inkscape:pagecheckerboard="1"
     inkscape:document-units="mm"
     showgrid="false"
     units="px"
     inkscape:zoom="4.5643188"
     inkscape:cx="28.810433"
     inkscape:cy="70.218583"
     inkscape:window-width="1702"
     inkscape:window-height="930"
     inkscape:window-x="0"
     inkscape:window-y="0"
     inkscape:window-maximized="1"
     inkscape:current-layer="layer1" />
  <defs
     id="defs2" />
  <g
     inkscape:label="Lager 1"
     inkscape:groupmode="layer"
     id="layer1">
    <g
       id="g1160"
       transform="translate(0.68109117)"
       style="fill:#ffffff">
      <path
         style="fill:#ffffff;stroke-width:0.0372038"
         d="M 11.961047,16.866848 C 11.780395,16.749942 12.03425,17.03126 6.7527629,11.095093 6.0159836,10.266983 5.1076274,9.2461983 4.7341935,8.8266819 4.3607596,8.4071642 4.0552227,8.044388 4.0552227,8.0205133 c 0,-0.023875 0.029298,-0.076865 0.065107,-0.117755 C 4.1710496,7.8448398 6.9342899,5.6916991 7.641079,5.159359 L 7.7855773,5.0505259 7.894042,5.1796551 c 0.093471,0.111277 0.9256939,1.3396251 4.85145,7.1606629 0.372595,0.552477 0.905083,1.339339 1.183304,1.748582 l 0.505857,0.744078 2.82e-4,0.227785 c 2.81e-4,0.221562 -0.0042,0.231899 -0.163071,0.378308 -0.220955,0.20367 -1.033547,0.846099 -1.5037,1.188816 -0.436894,0.318473 -0.606562,0.36871 -0.807061,0.238961 z M 3.1569966,7.6498488 C 2.8238688,7.5080911 2.7581806,7.4664795 2.7431142,7.3876659 2.7267552,7.3020887 2.8688792,7.1825845 4.3854179,6.0067413 5.2985347,5.29876 6.3271576,4.4985675 6.671247,4.2285355 7.3925319,3.6624905 7.4569545,3.6218674 7.5455085,3.6772492 7.6165153,3.7216563 7.6845271,4.0143326 7.7218388,4.4360481 L 7.746664,4.7166331 7.2495835,5.1116912 C 6.9761896,5.3289721 6.0828342,6.0270289 5.2643487,6.6629277 4.0648913,7.5948114 3.7545414,7.8190331 3.664582,7.8187279 3.6031956,7.8184467 3.374782,7.7425241 3.1569966,7.6498488 Z M 2.1020192,7.0320793 C 1.8147081,6.8818651 1.452275,6.550052 1.4511964,6.4362397 1.4510417,6.4220153 1.5304746,6.4052725 1.6276696,6.3990363 1.8026845,6.3878013 1.8044993,6.386353 1.8159351,6.2481824 c 0.00886,-0.1070164 0.027649,-0.1395149 0.080674,-0.1395149 0.040006,0 0.1048424,0.058773 0.1539066,0.1395149 0.046629,0.076732 0.1024047,0.1518143 0.1239469,0.1668473 0.046984,0.032788 0.2675513,0.03605 0.3809655,0.00564 C 2.6263326,6.4016531 2.63201,6.386166 2.5995668,6.3002627 2.541472,6.1464432 2.3862311,6.0063124 2.2444537,5.979714 2.0953563,5.9517433 2.1074572,5.9238541 2.3531066,5.7292962 2.496177,5.6159817 2.5022801,5.61466 2.604251,5.6748958 c 0.066581,0.039331 0.1868171,0.061736 0.3312946,0.061736 0.2226486,0 0.2267803,-0.00187 0.2265764,-0.1023115 C 3.1620104,5.5780493 3.144321,5.4686542 3.122817,5.3912185 3.07261,5.2104224 3.096988,5.1413856 3.2459824,5.0424095 c 0.1098749,-0.07299 0.1424782,-0.07699 0.3555116,-0.043625 0.3056105,0.047863 0.3421172,0.018566 0.3421172,-0.2745499 0,-0.2434477 0.048491,-0.3147483 0.2869193,-0.4218814 0.096618,-0.043414 0.1566432,-0.04573 0.313455,-0.012107 0.2315242,0.049653 0.2756673,0.012852 0.3127216,-0.260722 0.036051,-0.2661637 0.046634,-0.2865414 0.2062591,-0.3971617 l 0.1497437,-0.1037724 0.193237,0.084361 c 0.3079365,0.1344345 0.3173718,0.134862 0.3647799,0.016521 0.023461,-0.058562 0.045827,-0.2209959 0.049703,-0.3609636 l 0.00705,-0.2544886 0.1602,-0.1075915 c 0.08811,-0.059176 0.1732077,-0.099553 0.1891057,-0.089727 0.015898,0.00983 0.02717,0.079096 0.025049,0.1539362 -0.00323,0.1140021 0.019433,0.1562043 0.1397448,0.260206 C 6.5167946,3.3823077 6.5656214,3.3556488 6.6009643,3.0892194 6.624175,2.9142475 6.6170497,2.8871134 6.5143291,2.7592904 6.4090879,2.6283318 6.4062429,2.6165386 6.4666922,2.5618331 c 0.042363,-0.038338 0.082605,-0.046859 0.1179969,-0.024985 0.066076,0.040837 0.1492136,-0.020538 0.1492136,-0.1101563 0,-0.035246 0.030252,-0.091463 0.067227,-0.1249249 0.06315,-0.057149 0.078186,-0.049714 0.247911,0.1226033 0.1716528,0.1742731 0.1831338,0.1988368 0.2296964,0.4914568 0.048483,0.3046917 0.04801,0.3095302 -0.043817,0.4482914 C 7.1230549,3.5331574 7.0345822,3.541971 6.9495554,3.3925471 6.8189873,3.163089 6.6726295,3.3123597 6.7106871,3.6361691 6.732851,3.8247481 6.7296644,3.8336293 6.6059935,3.9279582 6.4176746,4.0715958 6.385219,4.0573827 6.4135666,3.8436873 6.4366349,3.6697911 6.4320714,3.6572287 6.3054535,3.5460572 6.1088065,3.3733984 6.0893835,3.3835211 6.0052324,3.702523 L 5.9547118,3.8940381 6.0873986,4.0299223 C 6.2022265,4.1475156 6.2144134,4.1764046 6.1779407,4.2445541 6.1423927,4.310977 6.113489,4.3197357 5.9932884,4.3005153 5.8539157,4.2782282 5.8502417,4.2806045 5.8262416,4.4085357 5.8102446,4.4938063 5.7516932,4.5845243 5.658051,4.6691241 5.4764447,4.8331943 5.3897504,4.8601934 5.2221409,4.8048776 5.0632258,4.7524303 5.0423224,4.773078 5.0091246,5.0152826 4.9927831,5.134507 4.954093,5.2086889 4.8651371,5.2913539 4.7515907,5.3968714 4.7295847,5.4029838 4.534482,5.3831982 l -0.2090136,-0.021195 -0.023511,0.117554 c -0.012931,0.064655 -0.023511,0.1535748 -0.023511,0.1976008 0,0.1005875 -0.2593739,0.2756944 -0.4546128,0.3069147 -0.1214674,0.019423 -0.141925,0.037755 -0.1620895,0.145241 C 3.6272527,6.3131681 3.5472235,6.3181501 3.3900684,6.1462252 3.2588692,6.0026958 3.2449479,5.997053 3.0220018,5.997053 c -0.2105855,0 -0.2317103,0.00713 -0.2317103,0.078129 0,0.04297 0.056922,0.1350504 0.1264933,0.2046216 0.097006,0.097005 0.1577155,0.1264927 0.2604271,0.1264927 0.073664,0 0.133934,0.015008 0.133934,0.033349 0,0.018343 -0.060758,0.086698 -0.1350188,0.1518987 C 3.076889,6.6786764 3.0201982,6.7034426 2.9622048,6.6850012 2.918808,6.671207 2.7870362,6.65106 2.669379,6.640244 2.4237411,6.6176601 2.3899623,6.6666315 2.5484664,6.8155393 2.6631503,6.9232785 2.665612,6.9804335 2.5587902,7.0552551 2.4465029,7.1339028 2.280689,7.1254899 2.10202,7.0320764 Z m 0.235252,-0.1288087 c -0.03232,-0.164132 -0.551485,-0.4150125 -0.551485,-0.2664997 0,0.080112 0.1504126,0.2071371 0.3178852,0.2684585 0.1958363,0.071707 0.2480197,0.07127 0.2335998,-0.00195 z M 4.0363157,5.615716 C 4.0223191,5.5287524 3.9864704,5.4191557 3.9566507,5.3721671 3.9081607,5.2957607 3.8780788,5.287899 3.671896,5.2977602 l -0.2305372,0.011024 0.00439,0.1411924 c 0.00705,0.2265404 0.126043,0.3238559 0.3960037,0.3238559 H 4.0617637 Z M 4.7545983,4.9478488 C 4.769288,4.6672301 4.6939308,4.5833094 4.4272616,4.5833094 H 4.2412421 v 0.198135 c 0,0.1581068 0.016912,0.2135224 0.083709,0.274294 0.1075876,0.097882 0.1694863,0.1203606 0.306932,0.1114584 0.1086829,-0.00703 0.111903,-0.012796 0.1227152,-0.219348 z M 5.5939063,4.4437945 C 5.6545007,4.0771993 5.5975412,3.9730668 5.3109932,3.9265661 5.164132,3.9027336 5.1503956,3.9219962 5.1129577,4.2042137 5.0904947,4.3735498 5.09603,4.3899171 5.2074804,4.4836962 c 0.07591,0.063874 0.1623305,0.099613 0.2408743,0.099613 0.1126434,0 0.1243455,-0.011221 0.1455516,-0.1395147 z M 7.1431446,2.9559814 c 0,-0.1672311 -0.098179,-0.3525212 -0.1785834,-0.3370369 -0.108578,0.020911 -0.115463,0.2142353 -0.014905,0.4185124 0.084546,0.171749 0.094097,0.1794012 0.1420641,0.1138024 0.028283,-0.03868 0.051424,-0.1265546 0.051424,-0.1952779 z M 0.63654603,6.0209924 C 0.45814599,5.7877603 0.37800032,5.6527717 0.39367503,5.6119236 0.42202375,5.5380483 0.4716433,5.4986992 3.385553,3.2392732 6.1242071,1.1157414 6.1205462,1.1185452 6.2846075,1.0188491 L 6.4119731,0.94145145 6.5216684,1.019562 C 6.5820004,1.062522 6.697066,1.199326 6.7773692,1.3235703 6.8960978,1.5072673 6.9213147,1.5774332 6.9123471,1.6991465 6.8992363,1.8771064 7.1811332,1.6446744 3.772714,4.2878588 1.2107764,6.2746092 1.0837564,6.3690956 0.97485775,6.3690956 c -0.0471542,0 -0.16404162,-0.1202706 -0.33831172,-0.3481032 z M 0.30145,5.0948626 C 0.28410143,5.0488216 0.25776404,4.9525579 0.24292275,4.8809395 0.22808132,4.8093224 0.17284034,4.6531322 0.12016513,4.5338501 0.03539906,4.3419006 0.02956896,4.3026597 0.06943545,4.1924092 0.0942095,4.1238983 0.12438114,3.9842343 0.13648384,3.8820466 0.1542752,3.7318282 0.14331342,3.6716936 0.07924462,3.568028 0.0356599,3.4975063 0,3.3896955 0,3.3284458 0,3.2311809 0.01122233,3.2192288 0.08864868,3.2340297 0.20127667,3.2555604 0.21855942,3.2251008 0.24675361,2.9553501 0.2640292,2.7900664 0.25555177,2.7123707 0.21292112,2.6452532 0.14057442,2.5313524 0.18780636,2.38828 0.29775412,2.38828 c 0.10892073,0 0.23701784,-0.3031295 0.20739418,-0.4907777 -0.0179877,-0.1139402 -0.007579,-0.1472191 0.0610958,-0.19532 0.10234523,-0.071686 0.17783337,-0.074542 0.17783337,-0.00674 0,0.028187 0.0270302,0.073684 0.0600672,0.1011022 0.0517688,0.042964 0.0726094,0.03527 0.15085717,-0.0557 C 1.0666493,1.6110524 1.0594694,1.4555287 0.93939794,1.4028508 0.78073491,1.3332417 0.85247557,1.2081748 1.0607934,1.1912211 1.2022944,1.1797049 1.2109376,1.1716351 1.2484583,1.0160214 1.2973461,0.81326434 1.4225617,0.70195221 1.5662532,0.73351141 c 0.109664,0.024087 0.2567369,-0.0803294 0.2567369,-0.18227393 0,-0.0846491 0.1036771,-0.1446276 0.3050189,-0.17645537 0.1287556,-0.0203537 0.2247906,-0.0630228 0.2965306,-0.13175446 0.097768,-0.093668 0.1157758,-0.098155 0.229267,-0.0571156 0.1322903,0.0478366 0.3540165,0.0586624 0.4496743,0.0219553 0.032367,-0.0124161 0.058849,-0.0626459 0.058849,-0.11161165 0,-0.13831547 0.2122819,-0.12475193 0.3534368,0.02258246 0.094799,0.098948 0.1314666,0.11161165 0.3231934,0.11161165 0.2387951,0 0.2820735,-0.0537423 0.1325541,-0.16460028 -0.080949,-0.06001929 -0.076983,-0.06141839 0.1203107,-0.04246516 0.175218,0.0168328 0.2198608,0.03797679 0.3162329,0.14977263 0.079093,0.0917529 0.1616279,0.14111086 0.2796311,0.16723115 0.2350741,0.0520339 0.2604271,0.0485748 0.2604271,-0.0355315 0,-0.1172896 0.093775,-0.0880435 0.2973067,0.0927217 0.2160399,0.19187499 0.4408804,0.31652146 0.5709471,0.31652146 0.1223066,0 0.1985489,0.0923533 0.1372336,0.1662328 -0.039353,0.0474175 -0.069235,0.0425102 -0.2265419,-0.0372034 -0.099665,-0.050504 -0.198508,-0.091826 -0.2196506,-0.091826 -0.059645,0 -0.045526,0.11918365 0.032171,0.27158289 L 5.6101935,1.1613872 5.475062,1.2727739 C 5.4007398,1.3340362 5.3229245,1.3787877 5.3021398,1.3722196 5.2813548,1.365653 5.2481652,1.3063804 5.2283853,1.240506 5.1974346,1.1374295 5.1650412,1.1127744 4.9959853,1.0636288 4.8879452,1.03222 4.7618237,1.0118803 4.7157158,1.0184273 c -0.075179,0.010673 -0.083833,0.032686 -0.083833,0.2132074 0,0.1934991 0.00464,0.2028723 0.1197143,0.241825 0.065843,0.022288 0.1495517,0.070845 0.1860193,0.1079036 0.063623,0.064655 0.063384,0.069546 -0.00591,0.1209132 -0.03972,0.029443 -0.1346862,0.053531 -0.2110372,0.053531 -0.1251546,0 -0.14297,0.012571 -0.1809838,0.1277597 C 4.493945,2.0221544 4.2927192,2.2220613 4.0334417,2.38649 3.8863,2.479805 3.852043,2.4870733 3.6964241,2.4580016 3.4799574,2.4175598 3.4390964,2.4489742 3.40854,2.6793181 3.3897915,2.8206498 3.3561525,2.8845739 3.2457165,2.9887302 2.9987918,3.221615 2.8983967,3.2811675 2.7527197,3.2811675 c -0.076531,0 -0.1914657,0.010462 -0.2554097,0.023252 -0.1087634,0.021753 -0.1162622,0.033657 -0.1162622,0.1845701 0,0.1799088 -0.025559,0.2120052 -0.3850259,0.4835094 -0.1324797,0.1000602 -0.2569185,0.1643584 -0.3180932,0.1643584 -0.1135458,0 -0.189774,0.060159 -0.189774,0.1497712 0,0.033265 -0.040423,0.098456 -0.089829,0.1448708 -0.089338,0.083929 -0.09005,0.083978 -0.1302136,0.00893 -0.022211,-0.041503 -0.040384,-0.1091102 -0.040384,-0.1502381 0,-0.1272731 -0.153498,-0.2699279 -0.29817272,-0.2771118 L 0.7998834,4.0066395 0.7890323,4.2724475 C 0.7789616,4.519132 0.7849843,4.5436071 0.8727409,4.6126369 0.99468859,4.7085619 0.99187478,4.7420277 0.8519648,4.8597546 L 0.73662782,4.956803 0.61504896,4.8816622 c -0.0668688,-0.041328 -0.15481473,-0.075139 -0.19543532,-0.075139 -0.0662081,0 -0.0720052,0.019263 -0.0559822,0.1860185 C 0.38248602,5.188764 0.35430885,5.235127 0.30145,5.0948527 Z M 0.5580582,4.1984935 c 0,-0.2592666 -0.003965,-0.271154 -0.111688,-0.3347871 -0.0614284,-0.036287 -0.12839535,-0.05565 -0.14881547,-0.04303 -0.0204201,0.012627 -0.0371276,0.1393968 -0.0371276,0.2817253 0,0.2508889 0.003605,0.2609709 0.11828415,0.3307108 0.0650562,0.039563 0.13202318,0.063442 0.14881562,0.053063 0.0167923,-0.010377 0.0305313,-0.1398344 0.0305313,-0.287682 z M 2.0462133,3.5255052 c 0,-0.3491957 0.014436,-0.3313111 -0.3036275,-0.3761555 -0.1523086,-0.021474 -0.1785574,-0.014839 -0.2156761,0.054517 -0.023244,0.043433 -0.037287,0.1828097 -0.031207,0.3097271 0.00974,0.2033673 0.022095,0.2363242 0.1040645,0.277649 0.051155,0.02579 0.1725329,0.047138 0.2697281,0.04744 l 0.1767184,5.625e-4 z M 1.2199569,3.3854349 1.2307869,3.0990566 1.0832344,3.0548493 C 0.87971556,2.9938738 0.83344499,3.0225884 0.80538917,3.2272789 0.75042899,3.6282582 0.78936476,3.6975481 1.0603099,3.6809375 l 0.1488154,-0.00913 z M 0.6165493,3.2694952 C 0.6555145,3.0319392 0.6536222,3.01864 0.5696346,2.9397378 0.4905146,2.8654078 0.4765732,2.8630628 0.42434036,2.9152948 0.36529666,2.9743398 0.30011137,3.1970061 0.29851878,3.3450914 c -8.8586e-4,0.08179 0.16202622,0.2054695 0.2405807,0.182648 0.020266,-0.00589 0.0551182,-0.1220972 0.0774498,-0.2582442 z M 3.0708453,2.779595 C 3.1080525,2.4817989 3.0770492,2.3990903 2.9109137,2.3529524 2.8343399,2.331686 2.7095525,2.3141938 2.6336082,2.3140799 2.5035643,2.3139393 2.493157,2.3226713 2.4547911,2.465156 c -0.022405,0.083206 -0.035607,0.2115622 -0.029337,0.2852364 0.00981,0.1152704 0.02956,0.1404753 0.1416132,0.1807202 0.071617,0.025722 0.2085323,0.048042 0.3042548,0.049598 l 0.1740416,0.00283 z M 2.0968348,2.806823 C 2.1069728,2.771015 2.1264038,2.637792 2.1400158,2.510772 2.1675518,2.2538114 2.1888558,2.2754546 1.8560457,2.2222859 1.6882219,2.1954769 1.6487612,2.2389319 1.5910405,2.5141172 1.5388905,2.762745 1.5616815,2.7989163 1.7943482,2.8367708 2.0493142,2.8782528 2.0774001,2.8754728 2.0968348,2.806823 Z M 1.2583215,2.7279871 C 1.3110646,2.6945465 1.3742034,2.4691325 1.3756558,2.3090853 1.3763167,2.235757 1.3494621,2.2000708 1.2683074,2.1664544 1.1209294,2.1054086 1.0186482,2.1650201 0.96530857,2.3430546 c -0.0632898,0.2112416 -0.0350118,0.353438 0.0764,0.3841817 0.1307894,0.036091 0.1607122,0.036194 0.2166129,7.03e-4 z M 0.78485642,2.378513 C 0.84753231,2.1668298 0.84733616,2.1634256 0.76932556,2.1087848 0.65432065,2.0282317 0.63631543,2.0369497 0.55705633,2.2115617 0.47349601,2.3956495 0.46521025,2.503774 0.52972072,2.5682844 0.62914247,2.6677063 0.71902601,2.6008504 0.78485642,2.378513 Z M 4.1451933,2.1371534 C 4.1565112,2.1013449 4.180742,1.9917103 4.1990406,1.8935202 4.2416079,1.6651097 4.2076377,1.6301434 3.883817,1.5690428 3.6514428,1.5251968 3.6306111,1.5268041 3.5827332,1.5922819 c -0.033699,0.046086 -0.0477,0.1467875 -0.0406,0.2920169 l 0.010837,0.2216723 0.1674173,0.044493 c 0.2549583,0.067756 0.4006271,0.063193 0.4248055,-0.013316 z M 3.1579103,1.9325333 C 3.1791153,1.8660303 3.2013413,1.7457682 3.2073003,1.665284 3.2168103,1.5368031 3.20678,1.5156928 3.1251263,1.4922737 3.0739713,1.4776037 2.9438079,1.4639317 2.8358754,1.4618917 c -0.1779844,-0.00336 -0.1996166,0.00517 -0.2325242,0.091723 -0.019956,0.052488 -0.036283,0.16936 -0.036283,0.259718 0,0.1822767 0.012382,0.1902073 0.3348349,0.2144996 0.09208,0.00693 0.1786753,0.015538 0.1924352,0.019114 0.013759,0.00357 0.042367,-0.047911 0.063573,-0.1144126 z M 2.2331535,1.8836055 c 0.019956,-0.052487 0.036283,-0.16936 0.036283,-0.259718 0,-0.1464907 -0.010628,-0.1669541 -0.098115,-0.1889122 -0.053963,-0.013541 -0.157635,-0.00967 -0.230382,0.00859 -0.107876,0.027092 -0.1381938,0.056245 -0.1644021,0.1580885 -0.072396,0.2813218 -0.00603,0.3644031 0.2984991,0.3736737 0.098254,0.00299 0.1288555,-0.014762 0.1581164,-0.091723 z M 1.4889855,1.8094364 C 1.5088915,1.7570791 1.5357296,1.6482572 1.5486255,1.56761 L 1.5720729,1.4209786 H 1.4428706 c -0.146737,0 -0.2206823,0.067366 -0.2854625,0.260064 -0.037616,0.1118928 -0.034789,0.1363314 0.020445,0.1767183 0.1134849,0.082983 0.2704809,0.058598 0.3111324,-0.048324 z M 4.2748418,1.1750126 C 4.3414575,0.93375007 4.198457,0.82747189 3.8054054,0.82612622 3.6600291,0.82556377 3.599514,0.91803375 3.6159253,1.1154545 c 0.012952,0.1558078 0.070743,0.1813811 0.4282479,0.1895113 0.1919381,0.00436 0.1938846,0.00326 0.2306686,-0.1299532 z M 1.6648736,1.1502211 c 0.054887,-0.042469 0.062388,-0.23588829 0.010394,-0.2680226 -0.05122,-0.0316562 -0.2520023,0.0794422 -0.2976209,0.1646818 -0.053318,0.099624 -0.049532,0.1118971 0.045402,0.1471854 0.086419,0.032124 0.1611575,0.018574 0.2418249,-0.043845 z m 0.7068737,-0.01886 C 2.4958705,0.97271959 2.3112507,0.75127647 2.0992307,0.80449009 1.9964679,0.83028275 1.8869673,1.0156727 1.9214382,1.1055033 1.972877,1.2395512 2.2735871,1.2568185 2.3717473,1.1313611 Z M 3.272705,1.1084928 C 3.2956609,1.0389343 3.3035154,0.93848452 3.2901588,0.88526949 3.2669611,0.7928417 3.2544721,0.78851363 3.0109742,0.78851363 H 2.7560738 L 2.7123245,0.9345361 C 2.6390553,1.1790876 2.6857305,1.2190681 3.0571338,1.2298939 3.2234545,1.234745 3.2327707,1.2294721 3.272705,1.1084928 Z M 5.164292,0.77859619 C 5.1807554,0.64011901 5.0658047,0.54310863 4.8200973,0.48812189 4.5687341,0.43186821 4.5194877,0.46137306 4.5791375,0.63248513 c 0.035423,0.10161404 0.073546,0.12852739 0.2702166,0.19076696 0.2722483,0.0861579 0.2998505,0.0822432 0.3149379,-0.0446559 z M 2.4435998,0.57689093 c 0.06945,-0.0885525 0.016491,-0.16041704 -0.1182161,-0.16041704 -0.1535258,0 -0.3012754,0.11195614 -0.2666907,0.20208351 0.020556,0.0535666 0.052398,0.0604622 0.1829225,0.0396149 0.086919,-0.0138785 0.1778118,-0.0504604 0.2019843,-0.0812814 z m 1.7976423,-0.0413642 c 0,-0.15763009 -0.062655,-0.19345971 -0.3382952,-0.19345971 -0.2586269,0 -0.3197966,0.0387459 -0.2692263,0.17052993 0.032591,0.0849289 0.1497305,0.12205357 0.3935993,0.12474209 0.2100545,0.00232 0.2139222,4.2184e-4 0.2139222,-0.10181231 z m -0.9510993,0.0175176 c 0.056042,-0.0409789 0.060222,-0.0632871 0.024404,-0.13021476 -0.035564,-0.0664509 -0.076391,-0.0807625 -0.2303798,-0.0807625 -0.1029358,0 -0.2195391,0.0173306 -0.259118,0.0385125 C 2.754744,0.41820477 2.728422,0.52822472 2.77789,0.577691 2.822894,0.6226956 3.2210917,0.6035357 3.2901428,0.55304433 Z"
         id="path836"
         sodipodi:nodetypes="cssssscsssccssccsssssscsscssccsssssssssssssssscsscssscssssssssssssssssssscssssssssscssssssssssscssssssssssssscsscssscsscsssssssssssssssscsssssscssssssssssssssssssssssscsssssssssssssscssssssssssssssssssssssssscssscsssccsscsssssssssccsccsssccsssccssscsssscsssssssccsssccssssscsssscsccssscssccsssscscssscssssscscssssssssssscsscsscsssssssscsssscsssssss" />
      <path
         style="fill:#ffffff;stroke-width:0.0372038"
         d="m 3.6101082,16.866848 c 0.1806512,-0.116906 -0.073203,0.164412 5.2082835,-5.771755 0.7367791,-0.82811 1.6451353,-1.8488947 2.0185703,-2.2684111 0.373433,-0.4195177 0.67897,-0.7822939 0.67897,-0.8061686 0,-0.023875 -0.0293,-0.076865 -0.06511,-0.117755 C 11.400106,7.8448398 8.6368644,5.6916991 7.9300755,5.159359 L 7.7855773,5.0505259 7.6771126,5.1796551 C 7.5836414,5.2909321 6.7514186,6.5192802 2.8256629,12.340318 2.4530677,12.892795 1.92058,13.679657 1.6423588,14.0889 l -0.5058567,0.744078 -2.813e-4,0.227785 c -2.812e-4,0.221562 0.00423,0.231899 0.1630704,0.378308 0.2209549,0.20367 1.0335467,0.846099 1.5036992,1.188816 0.4368948,0.318473 0.6065627,0.36871 0.8070615,0.238961 z M 12.414158,7.6498488 C 12.747286,7.5080911 12.812974,7.4664795 12.82804,7.3876659 12.844399,7.3020887 12.702276,7.1825845 11.185737,6.0067413 10.27262,5.29876 9.2439965,4.4985675 8.8999079,4.2285355 8.1786232,3.6624905 8.1141999,3.6218674 8.025646,3.6772492 7.9546392,3.7216563 7.8866275,4.0143326 7.8493158,4.4360481 l -0.024825,0.280585 0.49708,0.3950581 c 0.273394,0.2172809 1.16675,0.9153377 1.9852342,1.5512365 1.199458,0.9318837 1.509808,1.1561054 1.599768,1.1558002 0.06139,-2.812e-4 0.2898,-0.076204 0.507585,-0.1688791 z M 13.469136,7.0320793 C 13.756447,6.8818651 14.11888,6.550052 14.119959,6.4362397 14.120099,6.4220153 14.04068,6.4052725 13.943485,6.3990363 13.76847,6.3878013 13.766655,6.386353 13.755219,6.2481824 13.74636,6.141166 13.72757,6.1086675 13.674545,6.1086675 c -0.04001,0 -0.104842,0.058773 -0.153907,0.1395149 -0.04663,0.076732 -0.102404,0.1518143 -0.123946,0.1668473 -0.04698,0.032788 -0.267551,0.03605 -0.380966,0.00564 -0.0709,-0.019015 -0.07658,-0.034502 -0.04414,-0.1204055 0.05809,-0.1538195 0.213335,-0.2939503 0.355113,-0.3205487 0.149097,-0.027971 0.136996,-0.05586 -0.108653,-0.2504178 -0.14307,-0.1133145 -0.149173,-0.1146362 -0.251144,-0.0544 -0.06658,0.039331 -0.186817,0.061736 -0.331294,0.061736 -0.22265,0 -0.226781,-0.00187 -0.226577,-0.1023115 1.11e-4,-0.056271 0.0178,-0.1656661 0.03931,-0.2431018 0.05021,-0.1807961 0.02583,-0.2498329 -0.123166,-0.348809 -0.109875,-0.07299 -0.142479,-0.07699 -0.355512,-0.043625 -0.30561,0.047863 -0.342118,0.018566 -0.342118,-0.2745499 0,-0.2434477 -0.04849,-0.3147483 -0.286919,-0.4218814 -0.09662,-0.043414 -0.156643,-0.04573 -0.313455,-0.012107 -0.231524,0.049653 -0.275666,0.012852 -0.312721,-0.260722 C 10.678397,3.7633607 10.667814,3.742983 10.508189,3.6323627 L 10.358446,3.5285903 10.165208,3.6129511 C 9.857271,3.7473856 9.8478358,3.7478131 9.8004281,3.6294717 9.7769668,3.5709092 9.7546009,3.4084758 9.7507256,3.2685081 L 9.7436809,3.0140195 9.5834804,2.906428 C 9.4953704,2.847252 9.4102732,2.806875 9.3943755,2.816701 9.3784765,2.826531 9.3672045,2.895797 9.3693265,2.9706372 9.3725565,3.0846393 9.3498925,3.1268415 9.2295807,3.2308432 9.0543629,3.3823077 9.0055364,3.3556488 8.9701933,3.0892194 8.9469823,2.9142475 8.9541072,2.8871134 9.0568279,2.7592904 9.1620697,2.6283318 9.1649143,2.6165386 9.1044648,2.5618331 9.0621023,2.5234949 9.0218602,2.5149738 8.9864679,2.5368476 c -0.066075,0.040837 -0.149213,-0.020538 -0.149213,-0.1101563 0,-0.035246 -0.030253,-0.091463 -0.067227,-0.1249249 C 8.7068784,2.244617 8.6918427,2.2520526 8.5221171,2.4243697 8.3504636,2.5986428 8.3389826,2.6232065 8.29242,2.9158265 8.2439366,3.2205182 8.2444104,3.2253567 8.3362378,3.3641179 8.4481026,3.5331574 8.5365749,3.541971 8.6216022,3.3925471 8.7521699,3.163089 8.8985285,3.3123597 8.8604701,3.6361691 8.8383067,3.8247481 8.841493,3.8336293 8.9651636,3.9279582 9.1534825,4.0715958 9.1859388,4.0573827 9.1575912,3.8436873 9.1345222,3.6697911 9.1390865,3.6572287 9.2657044,3.5460572 9.4623507,3.3733984 9.4817736,3.3835211 9.5659249,3.702523 L 9.6164457,3.8940381 9.483759,4.0299223 C 9.3689316,4.1475156 9.3567446,4.1764046 9.393217,4.2445541 c 0.035548,0.066423 0.064452,0.075182 0.1846517,0.055961 0.1393729,-0.022287 0.1430471,-0.019911 0.167047,0.1080204 0.015998,0.085271 0.074549,0.1759886 0.1681915,0.2605884 0.1816058,0.1640702 0.2682998,0.1910693 0.4359088,0.1357535 0.158915,-0.052447 0.179819,-0.0318 0.213018,0.210405 0.01634,0.1192244 0.05503,0.1934063 0.143986,0.2760713 0.113546,0.1055175 0.135552,0.1116299 0.330656,0.091844 l 0.209013,-0.021195 0.02351,0.117554 c 0.01294,0.064655 0.02351,0.1535748 0.02351,0.1976008 0,0.1005875 0.259374,0.2756944 0.454612,0.3069147 0.121469,0.019423 0.141927,0.037755 0.162091,0.1452407 0.03449,0.1838544 0.11452,0.1888364 0.271675,0.016911 0.131199,-0.1435294 0.14512,-0.1491722 0.368066,-0.1491722 0.210587,0 0.231711,0.00713 0.231711,0.078129 0,0.04297 -0.05692,0.1350504 -0.126493,0.2046216 -0.09701,0.097005 -0.157716,0.1264927 -0.260428,0.1264927 -0.07366,0 -0.133934,0.015008 -0.133934,0.033349 0,0.018343 0.06076,0.086698 0.13502,0.1518987 0.09924,0.087132 0.155928,0.1118985 0.213921,0.093457 0.0434,-0.013794 0.175169,-0.033941 0.292827,-0.044757 0.245637,-0.022584 0.279417,0.026388 0.120912,0.1752953 -0.114684,0.1077392 -0.117145,0.1648942 -0.01032,0.2397158 0.112288,0.078648 0.278102,0.070235 0.45677,-0.023179 z M 13.233883,6.9032706 c 0.03232,-0.164132 0.551485,-0.4150125 0.551485,-0.2664997 0,0.080112 -0.150413,0.2071371 -0.317884,0.2684585 -0.195838,0.071707 -0.248021,0.07127 -0.233601,-0.00195 z M 11.534839,5.615716 c 0.01399,-0.086964 0.04984,-0.1965603 0.07967,-0.2435489 0.04849,-0.076406 0.07857,-0.084268 0.284754,-0.074407 l 0.230538,0.011024 -0.0044,0.1411924 c -0.007,0.2265404 -0.126044,0.3238559 -0.396004,0.3238559 h -0.22 z M 10.816556,4.9478488 c -0.01469,-0.2806187 0.06067,-0.3645394 0.327337,-0.3645394 h 0.18602 v 0.198135 c 0,0.1581068 -0.01691,0.2135224 -0.08371,0.274294 -0.107587,0.097882 -0.169486,0.1203606 -0.306931,0.1114584 -0.108683,-0.00703 -0.111903,-0.012796 -0.122716,-0.219348 z M 9.9772491,4.4437945 c -0.060594,-0.3665952 -0.00363,-0.4707277 0.2829119,-0.5172284 0.146862,-0.023833 0.160599,-0.00457 0.198035,0.2776476 0.02246,0.1693361 0.01693,0.1857034 -0.09452,0.2794825 -0.07591,0.063874 -0.162331,0.099613 -0.240874,0.099613 -0.112644,0 -0.1243461,-0.011221 -0.1455519,-0.1395149 z M 8.4280104,2.9559814 c 0,-0.1672311 0.098179,-0.3525212 0.1785828,-0.3370369 0.1085786,0.020911 0.115463,0.2142353 0.014905,0.4185124 C 8.5369522,3.2092059 8.5274012,3.2168581 8.479434,3.1512593 8.451151,3.1125793 8.42801,3.0247047 8.4280104,2.9559814 Z m 6.5065986,3.065011 C 15.113009,5.7877603 15.193154,5.6527717 15.17748,5.6119236 15.149131,5.5380483 15.099512,5.4986992 12.185602,3.2392732 9.4469479,1.1157414 9.4506081,1.1185452 9.2865478,1.0188491 L 9.1591815,0.94145145 9.0494865,1.019562 C 8.9891535,1.062522 8.8740885,1.199326 8.7937858,1.3235703 8.6750563,1.5072673 8.6498402,1.5774332 8.6588071,1.6991465 8.6719121,1.8771064 8.3900209,1.6446745 11.79844,4.2878588 c 2.561939,1.9867504 2.688959,2.0812368 2.797858,2.0812368 0.04715,0 0.164041,-0.1202706 0.338311,-0.3481032 z m 0.335096,-0.9261298 c 0.01735,-0.046041 0.04369,-0.1423047 0.05853,-0.2139231 0.01484,-0.071617 0.07008,-0.2278073 0.122756,-0.3470894 0.08477,-0.1919495 0.0906,-0.2311904 0.05073,-0.3414409 -0.02477,-0.068511 -0.05495,-0.2081749 -0.06705,-0.3103626 -0.01779,-0.1502184 -0.0068,-0.210353 0.05724,-0.3140186 0.04358,-0.070522 0.07924,-0.1783325 0.07924,-0.2395822 0,-0.097265 -0.01122,-0.109217 -0.08865,-0.094416 -0.112628,0.021531 -0.129911,-0.00893 -0.158105,-0.2786796 -0.01728,-0.1652837 -0.0088,-0.2429794 0.03383,-0.3100969 0.07235,-0.1139008 0.02512,-0.2569732 -0.08483,-0.2569732 -0.108921,0 -0.237018,-0.3031295 -0.207395,-0.4907777 0.01799,-0.1139402 0.0076,-0.1472191 -0.06109,-0.19532 -0.102345,-0.071686 -0.177833,-0.074542 -0.177833,-0.00674 0,0.028187 -0.02703,0.073684 -0.06007,0.1011022 -0.05177,0.042964 -0.07261,0.03527 -0.150858,-0.0557 -0.111647,-0.1297971 -0.104467,-0.2853208 0.0156,-0.3379987 0.158662,-0.069609 0.08692,-0.194676 -0.121396,-0.2116297 -0.141501,-0.011516 -0.150145,-0.019586 -0.187665,-0.1751997 -0.04889,-0.20275706 -0.174104,-0.31406919 -0.317796,-0.28250999 -0.109664,0.024087 -0.256737,-0.0803294 -0.256737,-0.18227393 0,-0.0846491 -0.103676,-0.1446276 -0.305019,-0.17645537 -0.128755,-0.0203537 -0.22479,-0.0630228 -0.29653,-0.13175446 -0.09777,-0.093668 -0.115776,-0.098155 -0.229267,-0.0571156 -0.13229,0.0478366 -0.354016,0.0586624 -0.449674,0.0219553 -0.03237,-0.0124161 -0.05885,-0.0626459 -0.05885,-0.11161165 0,-0.13831547 -0.212282,-0.12475193 -0.353437,0.02258246 -0.0948,0.098948 -0.131466,0.11161165 -0.323193,0.11161165 -0.238795,0 -0.282073,-0.0537423 -0.132555,-0.16460028 0.08095,-0.06001929 0.07698,-0.06141839 -0.12031,-0.04246516 -0.175218,0.0168328 -0.219861,0.03797679 -0.316233,0.14977263 -0.07909,0.0917529 -0.161628,0.14111086 -0.27963,0.16723115 -0.235074,0.0520339 -0.260428,0.0485748 -0.260428,-0.0355315 0,-0.1172896 -0.09378,-0.0880435 -0.297307,0.0927217 -0.216039,0.19187499 -0.4408798,0.31652146 -0.5709469,0.31652146 -0.1223067,0 -0.1985485,0.0923533 -0.1372341,0.1662328 0.039353,0.0474175 0.069235,0.0425102 0.2265431,-0.0372034 0.099665,-0.050504 0.1985079,-0.091826 0.2196499,-0.091826 0.05964,0 0.04553,0.11918365 -0.03217,0.27158289 l -0.070612,0.1385011 0.13513,0.1113867 c 0.07432,0.061262 0.152138,0.1060138 0.172924,0.099446 0.02078,-0.00657 0.05397,-0.065839 0.07375,-0.1317136 0.03095,-0.1030765 0.06334,-0.1277316 0.2324,-0.1768772 0.10804,-0.031409 0.234161,-0.051748 0.280268,-0.045202 0.07518,0.010673 0.08383,0.032686 0.08383,0.2132074 0,0.1934991 -0.0046,0.2028723 -0.119714,0.241825 -0.06584,0.022288 -0.149552,0.070845 -0.18602,0.1079036 -0.06362,0.064655 -0.06338,0.069546 0.0059,0.1209132 0.03972,0.029443 0.134686,0.053531 0.211038,0.053531 0.125154,0 0.14297,0.012571 0.180983,0.1277597 0.04574,0.1385868 0.246964,0.3384937 0.506241,0.5029224 0.147141,0.093315 0.181399,0.1005833 0.337018,0.071512 0.216466,-0.040442 0.257328,-0.00903 0.287883,0.2213165 0.01875,0.1413317 0.05239,0.2052558 0.162824,0.3094121 0.246926,0.2328848 0.34732,0.2924373 0.492997,0.2924373 0.07653,0 0.191466,0.010462 0.25541,0.023252 0.108764,0.021753 0.116261,0.033657 0.116261,0.1845701 0,0.1799088 0.02556,0.2120052 0.385027,0.4835094 0.13248,0.1000602 0.256918,0.1643584 0.318094,0.1643584 0.113545,0 0.189773,0.060159 0.189773,0.1497712 0,0.033265 0.04042,0.098456 0.08983,0.1448708 0.08934,0.083929 0.09005,0.083978 0.130213,0.00893 0.02221,-0.041503 0.04039,-0.1091102 0.04039,-0.1502381 0,-0.1272731 0.153497,-0.2699279 0.298173,-0.2771118 l 0.129672,-0.00644 0.01085,0.265808 c 0.01007,0.2466845 0.004,0.2711596 -0.08371,0.3401894 -0.121946,0.095925 -0.119133,0.1293908 0.02078,0.2471177 l 0.115337,0.09705 0.121578,-0.075141 c 0.06687,-0.041328 0.154815,-0.075139 0.195435,-0.075139 0.06621,0 0.07201,0.019263 0.05598,0.1860185 -0.01886,0.1962227 0.0093,0.2425857 0.06218,0.1023114 z M 15.013096,4.1984935 c 0,-0.2592666 0.004,-0.271154 0.111689,-0.3347871 0.06143,-0.036287 0.128396,-0.05565 0.148815,-0.04303 0.02042,0.012627 0.03713,0.1393968 0.03713,0.2817253 0,0.2508889 -0.0036,0.2609709 -0.118284,0.3307108 -0.06506,0.039563 -0.132023,0.063442 -0.148816,0.053063 C 15.02684,4.4757985 15.0131,4.3463414 15.0131,4.1984938 Z M 13.524941,3.5255052 c 0,-0.3491957 -0.01444,-0.3313111 0.303627,-0.3761555 0.15231,-0.021474 0.178558,-0.014839 0.215677,0.054517 0.02324,0.043433 0.03729,0.1828097 0.03121,0.3097271 -0.0097,0.2033673 -0.0221,0.2363242 -0.104065,0.277649 -0.05115,0.02579 -0.172532,0.047138 -0.269728,0.04744 l -0.176719,5.625e-4 z m 0.826257,-0.1400703 -0.01083,-0.2863783 0.147552,-0.044207 c 0.20352,-0.060976 0.24979,-0.032261 0.277846,0.1724296 0.05496,0.4009793 0.01602,0.4702692 -0.254922,0.4536586 l -0.148815,-0.00913 z m 0.603408,-0.1159397 c -0.03897,-0.237556 -0.03707,-0.2508552 0.04692,-0.3297574 0.07912,-0.07433 0.09306,-0.076675 0.145294,-0.024443 0.05904,0.059045 0.124229,0.2817113 0.125821,0.4297966 8.43e-4,0.08179 -0.162026,0.2054695 -0.240581,0.182648 C 15.01179,3.5218494 14.97694,3.4056422 14.95461,3.269495 Z M 12.500309,2.779595 c -0.03721,-0.2977961 -0.0062,-0.3805047 0.159932,-0.4266426 0.07657,-0.021266 0.201361,-0.038759 0.277306,-0.038873 0.130043,-1.406e-4 0.140451,0.00859 0.178816,0.1510761 0.02241,0.083206 0.03561,0.2115622 0.02934,0.2852364 -0.0098,0.1152704 -0.02956,0.1404753 -0.141613,0.1807202 -0.07162,0.025722 -0.208534,0.048042 -0.304256,0.049598 l -0.174041,0.00283 z m 0.974012,0.027228 c -0.01014,-0.035808 -0.02957,-0.169031 -0.04318,-0.296051 -0.02754,-0.2569606 -0.04884,-0.2353174 0.283969,-0.2884861 0.167825,-0.026809 0.207285,0.016646 0.265005,0.2918313 0.05215,0.2486278 0.02936,0.2847991 -0.203307,0.3226536 -0.254966,0.041482 -0.283052,0.038702 -0.302486,-0.029948 z m 0.838512,-0.078836 c -0.05274,-0.033441 -0.115882,-0.2588546 -0.117334,-0.4189018 -7.03e-4,-0.073328 0.02619,-0.1090145 0.107348,-0.1426309 0.147378,-0.061046 0.24966,-0.00143 0.303,0.1766002 0.06329,0.2112416 0.03501,0.353438 -0.0764,0.3841817 -0.130789,0.036091 -0.160712,0.036194 -0.216613,7.03e-4 z m 0.473466,-0.349474 c -0.06268,-0.2116832 -0.06248,-0.2150874 0.01553,-0.2697282 0.115005,-0.080553 0.133011,-0.071835 0.21227,0.1027769 0.08356,0.1840878 0.09185,0.2922123 0.02734,0.3567227 -0.09942,0.099422 -0.189304,0.032566 -0.255135,-0.1897714 z M 11.425962,2.1371534 c -0.01132,-0.035808 -0.03555,-0.1454431 -0.05385,-0.2436332 -0.04257,-0.2284105 -0.0086,-0.2633768 0.315224,-0.3244774 0.232374,-0.043846 0.253206,-0.042239 0.301083,0.023239 0.0337,0.046086 0.0477,0.1467875 0.0406,0.2920169 L 12.018179,2.105971 11.85076,2.150464 C 11.595802,2.21822 11.450134,2.213657 11.425956,2.137148 Z m 0.987282,-0.2046201 c -0.0212,-0.066503 -0.04343,-0.1867651 -0.04939,-0.2672493 -0.0095,-0.1284809 5.62e-4,-0.1495912 0.08218,-0.1730103 0.05115,-0.01467 0.181317,-0.028342 0.289249,-0.030382 0.177985,-0.00336 0.199617,0.00517 0.232525,0.091723 0.01996,0.052488 0.03628,0.16936 0.03628,0.259718 0,0.1822767 -0.01239,0.1902073 -0.334835,0.2144996 -0.09208,0.00693 -0.178676,0.015538 -0.192436,0.019114 -0.01377,0.00357 -0.04237,-0.047911 -0.06357,-0.1144126 z m 0.924758,-0.048928 c -0.01996,-0.052487 -0.03628,-0.16936 -0.03628,-0.259718 0,-0.1464907 0.01063,-0.1669541 0.09811,-0.1889122 0.05396,-0.013541 0.157636,-0.00967 0.230382,0.00859 0.107877,0.027092 0.138195,0.056245 0.164402,0.1580885 0.0724,0.2813218 0.006,0.3644031 -0.298499,0.3736737 -0.09825,0.00299 -0.128855,-0.014762 -0.158115,-0.091722 z M 14.08217,1.8094364 C 14.062264,1.7570791 14.035424,1.6482572 14.022529,1.56761 l -0.02345,-0.1466314 h 0.129202 c 0.146737,0 0.220683,0.067366 0.285463,0.260064 0.03762,0.1118928 0.03479,0.1363314 -0.02045,0.1767183 -0.113485,0.082983 -0.270481,0.058598 -0.311132,-0.048324 z M 11.296312,1.1750126 c -0.06662,-0.24126253 0.07639,-0.34754071 0.469437,-0.34888638 0.145377,-5.6245e-4 0.205891,0.0919075 0.18948,0.28932828 -0.01295,0.1558078 -0.07074,0.1813811 -0.428248,0.1895113 -0.191938,0.00436 -0.193884,0.00326 -0.230669,-0.1299532 z m 2.609969,-0.024792 c -0.05489,-0.042469 -0.06239,-0.23588829 -0.01039,-0.2680226 0.05122,-0.0316562 0.252003,0.0794422 0.29762,0.1646818 0.05332,0.099624 0.04953,0.1118971 -0.0454,0.1471854 -0.08642,0.032124 -0.161158,0.018574 -0.241825,-0.043845 z m -0.706873,-0.01886 c -0.124124,-0.15864111 0.0605,-0.38008423 0.272516,-0.32687061 0.102763,0.0257927 0.212263,0.21118261 0.177793,0.30101321 -0.05144,0.1340479 -0.352149,0.1513152 -0.450309,0.025857 z m -0.900959,-0.022868 c -0.02295,-0.069559 -0.03081,-0.17000828 -0.01745,-0.22322331 0.0232,-0.0924278 0.03569,-0.0967559 0.279185,-0.0967559 h 0.2549 l 0.04375,0.14602247 c 0.07327,0.24455154 0.02659,0.28453204 -0.34481,0.29535784 -0.16632,0.00485 -0.175635,-4.218e-4 -0.215571,-0.1214011 z M 10.406863,0.77859619 c -0.01646,-0.13847718 0.09849,-0.23548756 0.344194,-0.2904743 0.251364,-0.0562537 0.30061,-0.0267488 0.24096,0.14436324 -0.03542,0.10161404 -0.07355,0.12852739 -0.270216,0.19076696 -0.272248,0.0861579 -0.29985,0.0822432 -0.314938,-0.0446559 z m 2.720692,-0.20170526 c -0.06945,-0.0885525 -0.01649,-0.16041704 0.118216,-0.16041704 0.153525,0 0.301276,0.11195614 0.266691,0.20208351 -0.02056,0.0535666 -0.0524,0.0604622 -0.182922,0.0396149 -0.08692,-0.0138785 -0.177813,-0.0504604 -0.201985,-0.0812814 z m -1.797642,-0.0413642 c 0,-0.15763009 0.06266,-0.19345971 0.338296,-0.19345971 0.258626,0 0.319796,0.0387459 0.269226,0.17052993 -0.03259,0.0849289 -0.149731,0.12205357 -0.3936,0.12474209 -0.210055,0.00232 -0.213922,4.2184e-4 -0.213922,-0.10181231 z m 0.951099,0.0175176 c -0.05604,-0.0409789 -0.06022,-0.0632871 -0.0244,-0.13021476 0.03556,-0.0664509 0.07639,-0.0807625 0.230379,-0.0807625 0.102936,0 0.21954,0.0173306 0.259119,0.0385125 0.0703,0.0376252 0.09663,0.14764515 0.04716,0.19711143 -0.045,0.0450046 -0.443201,0.0258447 -0.512253,-0.0246467 z"
         id="path836-3"
         sodipodi:nodetypes="cssssscsssccssccsssssscsscscccsssssssssssssssscsscssscssssssssssssssssssscsssssssssccsssssssssscsssccsssssssscsscssscsscsssssssssssssssscsscssscsssssssscssssssssssssssssssssssssssssscsssssssssssssssssssssssssccsscsssccsscsssssssssccsccsssccssscsssscsssscsssssssccsssccssssscsssccsccsscsssscsssscssssscssssscscssssssssssscsscsscsssssssssssssssssssss" />
    </g>
  </g>
</svg>
