<?xml version="1.0" encoding="UTF-8" standalone="no"?>
<!-- Created with Inkscape (http://www.inkscape.org/) -->

<svg
   width="64"
   height="64"
   viewBox="0 0 16.933333 16.933334"
   version="1.1"
   id="svg5"
   xmlns="http://www.w3.org/2000/svg"
   xmlns:svg="http://www.w3.org/2000/svg">
  <defs
     id="defs2" />
  <g
     id="layer1">
    <path
       style="fill:#ffffff;stroke-width:0.0172872"
       d="M 2.0431764,16.908998 C 1.9602187,16.872757 1.876554,16.793057 1.8422936,16.717632 1.8116739,16.650224 1.8105455,16.401051 1.810179,9.6279558 L 1.8097869,2.6081437 1.6641359,2.5092064 C 1.2472056,2.2259971 1.0391181,1.8036281 1.0713576,1.3060066 1.0844166,1.1044411 1.1224816,0.96380799 1.2142435,0.77810771 1.3901797,0.42206407 1.7319615,0.15177983 2.1468873,0.0405643 2.3323772,-0.00915361 2.7302473,-0.01417349 2.8988814,0.03107665 3.3528542,0.15289318 3.7091938,0.44111518 3.8848869,0.82859726 4.0597307,1.2142068 4.0366627,1.7326461 3.8292893,2.0781429 3.7421304,2.2233555 3.57164,2.3977544 3.4085243,2.5085543 l -0.1466114,0.099589 -3.921e-4,7.0198121 c -3.92e-4,6.7912266 -0.00142,7.0221046 -0.032342,7.0901846 -0.038333,0.0844 -0.1349174,0.168073 -0.2252432,0.195135 -0.097123,0.0291 -0.8924887,0.02556 -0.960784,-0.0043 z M 4.4373436,12.716063 C 4.2495943,12.658952 4.0830255,12.448031 4.030713,12.201158 3.9938784,12.027325 3.9933603,3.8105555 4.0301903,3.6368753 4.0755058,3.4230858 4.1697878,3.2812388 4.3715252,3.1233409 5.3165223,2.3836996 6.3178698,1.8281179 7.1314687,1.5920287 7.5769935,1.4627473 7.8698032,1.4201238 8.3098088,1.4205014 c 0.489238,3.92e-4 0.8716048,0.059099 1.2965409,0.198971 0.4326523,0.1424116 1.0852773,0.4785873 1.8454873,0.9506357 0.373219,0.2317482 0.431206,0.2606372 0.620161,0.3089634 0.378486,0.096801 0.849505,0.00191 1.427559,-0.2876026 0.334418,-0.1674874 0.481383,-0.2591206 0.80027,-0.4989694 0.380455,-0.286156 0.773889,-0.5542429 0.917678,-0.6253073 0.105568,-0.052175 0.136868,-0.060373 0.191991,-0.050288 0.203687,0.037265 0.387579,0.2559054 0.435924,0.5183002 0.0255,0.1384181 0.02682,8.6933686 0.0014,8.8276256 -0.04196,0.221249 -0.146314,0.34086 -0.54429,0.62386 -1.367655,0.972536 -2.434688,1.331821 -3.326394,1.120042 -0.379668,-0.09017 -0.901986,-0.356434 -1.323138,-0.6745 C 10.371145,11.619406 10.208111,11.5187 9.9025808,11.368732 9.1628643,11.005644 8.5121596,10.936609 7.6874652,11.133724 7.3017711,11.225912 6.8336043,11.405483 6.3827127,11.63418 5.8966468,11.880716 5.6917131,12.0075 4.8136497,12.604888 4.6413416,12.722118 4.5479619,12.749707 4.4373579,12.716063 Z"
       id="path836" />
  </g>
</svg>
