<?xml version="1.0" encoding="UTF-8" standalone="no"?>
<!-- Created with Inkscape (http://www.inkscape.org/) -->

<svg
   width="64"
   height="64"
   viewBox="0 0 16.933333 16.933334"
   version="1.1"
   id="svg5"
   xmlns="http://www.w3.org/2000/svg"
   xmlns:svg="http://www.w3.org/2000/svg">
  <defs
     id="defs2" />
  <g
     id="layer1">
    <path
       style="fill:#ffffff;stroke:#000000;stroke-width:0.027706"
       d="M 4.5551369,13.73784 C 4.4712159,13.713848 4.2942016,13.631736 4.1617718,13.555369 3.9569689,13.437269 3.8864653,13.375379 3.6899365,13.141189 3.4947882,12.908643 3.4405963,12.821296 3.3412101,12.579103 3.1831538,12.193936 3.1341667,11.913692 3.1494268,11.481958 3.1792799,10.637362 3.5697022,9.9484817 4.2213186,9.5906614 4.5074657,9.4335284 4.6608076,9.3951632 5.0001725,9.3957953 c 0.3135708,5.704e-4 0.5150999,0.048388 0.7563296,0.1794085 0.3300738,0.1792741 0.6561763,0.5253422 0.8331234,0.8841312 l 0.1088097,0.220629 0.027707,-0.189904 C 6.9470115,8.9761896 6.6960377,6.9399561 6.0763141,5.2177993 5.9357403,4.8271574 5.6389438,4.1214756 5.5058847,3.8615112 5.4508509,3.7539882 5.4112872,3.6595299 5.4179658,3.6516022 5.4567654,3.6055488 6.6007883,3.373365 7.2253505,3.2847856 8.1011111,3.1605811 8.324241,3.1472014 9.5268205,3.1467839 c 1.3500215,-4.564e-4 1.7915365,0.034262 2.9118045,0.2290499 0.55905,0.097205 0.525804,0.083369 0.591628,0.2462207 0.101089,0.2501087 0.329321,1.1059901 0.448665,1.6825274 0.117824,0.5691893 0.214134,1.2008098 0.273853,1.795992 0.04477,0.4461473 0.04513,2.154298 5.77e-4,2.5807942 -0.109067,1.0434349 -0.269326,1.8555249 -0.512069,2.5948459 -0.234881,0.715378 -0.62845,1.181088 -1.191885,1.410356 -0.277845,0.113057 -0.722659,0.133043 -1.014105,0.04557 -1.3979076,-0.419587 -1.8940712,-2.441281 -0.900268,-3.668278 0.536302,-0.6621431 1.349345,-0.8627349 2.060124,-0.508268 0.350035,0.1745629 0.723984,0.571198 0.892645,0.946793 0.04324,0.09629 0.08236,0.175083 0.08692,0.175083 0.01834,0 0.06685,-0.49438 0.09118,-0.9293692 C 13.317443,8.8268273 13.202847,7.6012054 12.980897,6.7000545 12.921884,6.4604495 12.940482,6.4769175 12.667531,6.422634 11.506786,6.1917919 10.005801,6.0828451 8.8237205,6.1436358 8.1898052,6.1762364 7.3817978,6.2496667 7.2414036,6.2874331 c -0.055361,0.014892 -0.05885,0.026539 -0.04285,0.1430145 0.2622878,1.9092854 0.1127805,4.0985924 -0.3905402,5.7188654 -0.2725808,0.877484 -0.7067678,1.380715 -1.3604851,1.576831 -0.2413187,0.0724 -0.6608065,0.07789 -0.8923609,0.01169 z"
       id="path836" />
    <ellipse
       style="fill:none;fill-opacity:1;stroke:#ffffff;stroke-width:1.00874;stroke-linecap:round;stroke-miterlimit:4;stroke-dasharray:none;stroke-opacity:0.938225;stop-color:#000000"
       id="path958"
       cx="8.4408598"
       cy="8.4666681"
       rx="7.9622936"
       ry="7.9622946" />
  </g>
</svg>
