<?xml version="1.0" encoding="UTF-8" standalone="no"?>
<!-- Created with Inkscape (http://www.inkscape.org/) -->

<svg
   width="64"
   height="64"
   viewBox="0 0 16.933333 16.933333"
   version="1.1"
   id="svg1"
   xml:space="preserve"
   xmlns="http://www.w3.org/2000/svg"
   xmlns:svg="http://www.w3.org/2000/svg"><defs
     id="defs1" /><g
     id="layer1"><path
       style="fill:#ffffff;stroke-width:1.16344;fill-opacity:1"
       d="m 13.006332,14.022054 c -0.01899,-0.01899 -0.02212,-0.158859 -0.007,-0.310816 0.01517,-0.151959 0.01024,-0.466508 -0.01105,-0.698999 -0.03865,-0.422711 -0.03865,-0.422711 -1.356514,-0.449903 -1.129846,-0.02332 -1.349792,-0.04037 -1.541652,-0.119608 C 9.795881,12.321196 9.7648999,12.292399 9.1780405,11.594913 8.901876,11.266691 8.6248792,10.942426 8.5624911,10.874325 8.416851,10.715351 8.4182727,10.625164 8.5664468,10.625164 c 0.069527,0 0.1556713,-0.05309 0.2113557,-0.130244 0.051692,-0.07163 0.2257447,-0.289828 0.3867724,-0.484875 C 9.3256026,9.8149989 9.4904232,9.6050623 9.5308421,9.54352 9.5712599,9.4819742 9.6417408,9.4316207 9.6874709,9.4316207 c 0.045723,0 0.268364,0.2127614 0.4947501,0.472801 0.226385,0.2600393 0.482918,0.5114353 0.570073,0.5586553 0.130472,0.07069 0.326659,0.08899 1.110645,0.103604 0.678134,0.01263 0.984412,4.96e-4 1.064164,-0.04219 0.109642,-0.05867 0.111329,-0.07278 0.08082,-0.67465 -0.0327,-0.6453434 -0.01746,-0.7663361 0.09652,-0.7663361 0.06984,0 1.461654,1.2421401 2.157743,1.9256961 0.212635,0.208807 0.431774,0.378692 0.50974,0.395172 0.07522,0.01591 0.136759,0.05704 0.136759,0.09141 0,0.05461 -0.654684,0.688864 -1.615698,1.565268 -0.164414,0.149939 -0.4698,0.43527 -0.678636,0.634067 -0.346569,0.329912 -0.514639,0.420283 -0.608001,0.326922 z M 1.0875671,12.481369 c -0.059655,-0.07391 -0.07054,-0.253647 -0.058644,-0.968253 0.014267,-0.856979 0.017172,-0.878177 0.1243268,-0.906907 0.060345,-0.01618 0.808604,-0.02973 1.6627973,-0.0301 1.3323121,-5.83e-4 1.5832653,-0.01249 1.7654408,-0.08379 C 5.0166781,10.321988 5.4493659,9.9507579 5.939282,9.3273756 6.0769351,9.1522226 6.5238157,8.5949064 6.9323482,8.0888965 7.3408818,7.5828866 7.6916509,7.1464991 7.7118342,7.1191479 7.7320198,7.0917955 7.868029,6.9239541 8.0140822,6.7461667 8.1601353,6.5683795 8.5383719,6.0969255 8.8546079,5.6984914 9.5174579,4.8633478 9.7654211,4.6410735 10.217159,4.4771017 c 0.306345,-0.1111978 0.390376,-0.1180101 1.455593,-0.1180101 0.9449,0 1.148706,-0.012766 1.241514,-0.077772 0.106571,-0.074648 0.110515,-0.1041136 0.09809,-0.7335283 -0.01247,-0.6319273 -0.0092,-0.6562955 0.09091,-0.6705944 0.07295,-0.010424 0.235758,0.1092281 0.547037,0.4020074 1.206922,1.1351962 2.045591,1.8801808 2.146461,1.906688 0.06155,0.016173 0.111888,0.058023 0.111888,0.093 0,0.058514 -0.410892,0.4523247 -1.717705,1.6462981 -0.732724,0.6694549 -1.016609,0.9151412 -1.056443,0.9142907 -0.119713,-0.00256 -0.161525,-0.1004627 -0.149911,-0.3510471 0.0069,-0.1484044 0.0074,-0.466852 0.0013,-0.7076616 -0.01131,-0.4378355 -0.01131,-0.4378355 -1.096954,-0.422711 -1.085656,0.015125 -1.085656,0.015125 -1.271962,0.1573348 -0.102464,0.078216 -0.413967,0.4271556 -0.6922175,0.7754214 -2.9963437,3.7502494 -3.4578801,4.2850844 -4.0865638,4.7355304 -0.2618744,0.187631 -0.5640223,0.336844 -0.8951538,0.442063 -0.1399916,0.04448 -0.7297002,0.06921 -1.9905726,0.08347 -1.6883083,0.01909 -1.7958754,0.01502 -1.8649022,-0.0705 z M 5.38169,7.3577198 C 4.72868,6.6202387 4.6130356,6.5056397 4.4380512,6.422604 4.2839157,6.3494617 4.0690313,6.3395413 2.7307522,6.3437839 1.3360182,6.348205 1.19153,6.3408753 1.1070486,6.2614498 1.0213103,6.18084 1.0161912,6.1067361 1.0391807,5.2791097 1.0640457,4.3839565 1.0640457,4.3839565 2.978679,4.3839565 c 2.3934245,0 2.2455029,-0.046741 3.2050458,1.0127495 0.3734584,0.4123575 0.6739822,0.7029608 0.7269604,0.7029608 0.1591069,0 0.1536062,0.090551 -0.017254,0.2839376 C 6.8018341,6.4872817 6.5182221,6.83506 6.263184,7.1564449 6.0081448,7.4778302 5.7817902,7.7407808 5.7601735,7.7407808 c -0.021617,0 -0.1919379,-0.1723771 -0.3784891,-0.3830615 z"
       id="path1" /></g></svg>
