<?xml version="1.0" encoding="UTF-8" standalone="no"?>
<!-- Created with Inkscape (http://www.inkscape.org/) -->

<svg
   width="64"
   height="64"
   viewBox="0 0 16.933333 16.933334"
   version="1.1"
   id="svg5"
   xmlns="http://www.w3.org/2000/svg"
   xmlns:svg="http://www.w3.org/2000/svg">
  <defs
     id="defs2" />
  <g
     id="layer1">
    <path
       style="fill:#ffffff;stroke-width:0.0400104"
       d="M 3.8618918,16.847379 C 3.5531533,16.691409 3.4069553,16.365377 3.501334,16.04331 3.542104,15.904183 3.7461635,15.680279 4.754658,14.668113 l 1.2046249,-1.209011 -1.6453677,-0.01131 c -1.5902084,-0.01093 -1.6490699,-0.01408 -1.7558086,-0.0938 -0.060743,-0.04537 -0.1475633,-0.132205 -0.1929343,-0.192962 -0.081388,-0.10899 -0.08264,-0.151159 -0.093468,-3.148353 -0.00768,-2.127506 0.00178,-3.0378868 0.031602,-3.0378868 0.023417,0 0.1093766,0.033727 0.1910216,0.074948 0.7345785,0.3708761 1.850302,0.3432692 2.6691067,-0.066045 C 5.7138612,6.7085388 6.2607299,6.1897789 6.519511,5.6973179 6.6012857,5.5417011 6.6740408,5.4143778 6.6811899,5.4143778 c 0.00715,0 0.1397658,0.158753 0.2947045,0.3527844 C 7.2814145,6.149769 7.7470505,6.5441028 8.1767625,6.7841447 9.2563186,7.387198 10.599477,7.45749 11.765755,6.9719669 12.07361,6.8438058 12.717706,6.4465246 12.820341,6.3214922 c 0.0302,-0.036792 0.07071,-0.066894 0.09002,-0.066894 0.01931,0 0.03511,0.4321134 0.03511,0.960252 0,0.5281385 0.01007,0.9602519 0.02238,0.9602519 0.01231,0 0.520942,-0.4463311 1.130297,-0.991848 0.609353,-0.5455169 1.13121,-1.0061868 1.15968,-1.0237117 0.02895,-0.01782 0.07745,-0.010555 0.11003,0.016489 0.05008,0.041566 0.05826,0.4790598 0.05826,3.116261 0,3.0603016 -0.0042,3.1639316 -0.127269,3.1639316 -0.01718,0 -0.544543,-0.459119 -1.171905,-1.020267 -0.627363,-0.561147 -1.149843,-1.020268 -1.161068,-1.020268 -0.01122,0 -0.02041,0.570467 -0.02041,1.267705 0,1.207082 -0.004,1.276024 -0.08424,1.441715 -0.05771,0.119213 -0.132808,0.198792 -0.238469,0.252696 -0.145606,0.07428 -0.242097,0.07868 -1.725333,0.07868 H 9.3263383 l 1.1670447,1.170307 c 0.641873,0.643668 1.186109,1.220992 1.209411,1.282941 0.187564,0.498638 -0.240394,1.01204 -0.772351,0.926552 -0.153075,-0.0246 -0.28226,-0.142979 -1.7157132,-1.572241 L 7.664555,13.718401 6.093911,15.284123 C 4.7678227,16.606056 4.4983476,16.856627 4.363225,16.8934 4.1350567,16.955495 4.0627726,16.94886 3.8618918,16.847377 Z M 3.1656223,6.3133233 C 2.3679602,6.0944358 1.7351637,5.415766 1.562666,4.5941638 1.4887316,4.242016 1.4887316,4.0660812 1.562666,3.7139334 1.7851483,2.6542553 2.689375,1.9162056 3.7630675,1.9179159 4.3889609,1.9189745 4.9013558,2.1315077 5.3434821,2.5736334 5.7815991,3.0117503 5.9823409,3.5117648 5.9831752,4.1669999 5.9844152,5.138787 5.370442,5.9838299 4.4511832,6.275568 4.0910672,6.3898546 3.5070228,6.4070076 3.1656223,6.3133233 Z M 9.3845417,6.2918711 C 8.4419841,6.0457608 7.7286787,5.4656719 7.2873968,4.586388 6.9681783,3.9503232 6.878522,3.0823809 7.0608854,2.3935869 7.3531567,1.2896647 8.178748,0.44194365 9.2845167,0.11035277 9.5893612,0.01893829 9.7213451,0.0020182 10.144742,8.106388e-5 10.745297,-0.00267115 11.046898,0.06391438 11.565113,0.31364492 c 0.839924,0.40476359 1.465284,1.16723538 1.705916,2.07994198 0.117201,0.4445347 0.116438,1.1533912 -0.0017,1.5980982 -0.166979,0.628469 -0.559697,1.2513414 -1.040633,1.6505053 -0.320956,0.2663784 -0.961885,0.5837273 -1.351649,0.6692517 -0.40784,0.089491 -1.110077,0.080283 -1.4924962,-0.019571 z"
       id="path836" />
  </g>
</svg>
